<?xml version="1.0" encoding="utf-8"?>
<!-- Generator: Adobe Illustrator 15.0.0, SVG Export Plug-In . SVG Version: 6.00 Build 0)  -->
<!DOCTYPE svg PUBLIC "-//W3C//DTD SVG 1.1//EN" "http://www.w3.org/Graphics/SVG/1.1/DTD/svg11.dtd">
<svg version="1.1"
	 xmlns="http://www.w3.org/2000/svg" xmlns:xlink="http://www.w3.org/1999/xlink" x="0px" y="0px" width="595.28px"
	 height="841.89px" viewBox="0 0 595.28 841.89" enable-background="new 0 0 595.28 841.89" xml:space="preserve">
	<g>
		<g>
			<g>
				<g>
					<g>
						<path fill="#CCCCCC" d="M405.805,336.392c0-0.056,0.004-0.116,0.004-0.175C405.809,336.275,405.805,336.336,405.805,336.392z"
							/>
						<path fill="#CCCCCC" d="M405.953,334.11c0.004-0.041,0.004-0.082,0.008-0.127C405.957,334.028,405.957,334.071,405.953,334.11
							z"/>
						<path fill="#FEFEFE" d="M483.361,389.845c-1.434-1.277-2.195-3.146-2.07-5.061c0.129-1.914,1.129-3.666,2.715-4.746
							c13.764-9.357,21.982-24.863,21.982-41.476c0-26.397-20.521-48.08-46.445-49.969c-1.217-0.089-2.436-0.147-3.672-0.147
							c-3.133,0-6.193,0.303-9.174,0.856c-21.801,4.051-38.693,22.252-40.736,44.681c-0.004,0.045-0.004,0.086-0.008,0.127
							c-0.064,0.699-0.107,1.4-0.145,2.106c0,0.059-0.004,0.119-0.004,0.175c-0.031,0.721-0.053,1.442-0.053,2.171
							c0,15.862,7.277,30.446,19.957,40.022c1.523,1.148,2.432,2.928,2.477,4.832s-0.785,3.725-2.25,4.941
							c-22.949,19.031-37.775,59.524-37.775,103.163c0,16.59,10.602,26.609,19.492,32.096c11.893,7.335,28.703,11.539,46.133,11.539
							c0.313,0,0.627-0.011,0.941-0.013c5.191-0.046,10.32-0.467,15.273-1.228c11.355-1.744,21.785-5.283,29.912-10.299
							c8.895-5.486,19.494-15.506,19.494-32.096C519.406,448.646,505.594,409.687,483.361,389.845z"/>
						<path d="M531.877,491.521c0-42.914-13.225-82.568-34.893-105.772c13.563-11.818,21.471-28.969,21.471-47.187
							c0-34.51-28.074-62.585-62.584-62.585s-62.586,28.075-62.586,62.585c0,17.312,6.934,33.402,19.248,45.163
							c-22.875,22.866-36.842,63.295-36.842,107.796c0,17.682,8.787,32.452,25.418,42.708c14.002,8.638,32.711,13.397,52.676,13.397
							s38.672-4.76,52.674-13.397C523.086,523.974,531.877,509.203,531.877,491.521z M470,533.916
							c-4.953,0.761-10.082,1.182-15.273,1.228c-0.314,0.002-0.629,0.013-0.941,0.013c-17.43,0-34.24-4.204-46.133-11.539
							c-8.891-5.486-19.492-15.506-19.492-32.096c0-43.639,14.826-84.132,37.775-103.163c1.465-1.217,2.295-3.037,2.25-4.941
							s-0.953-3.684-2.477-4.832c-12.68-9.576-19.957-24.16-19.957-40.022c0-0.729,0.021-1.45,0.053-2.171
							c0-0.056,0.004-0.116,0.004-0.175c0.037-0.706,0.08-1.407,0.145-2.106c0.004-0.039,0.004-0.082,0.008-0.127
							c2.043-22.429,18.936-40.63,40.736-44.681c2.98-0.554,6.041-0.856,9.174-0.856c1.236,0,2.455,0.059,3.672,0.147
							c25.924,1.889,46.445,23.571,46.445,49.969c0,16.612-8.219,32.118-21.982,41.476c-1.586,1.08-2.586,2.832-2.715,4.746
							c-0.125,1.915,0.637,3.783,2.07,5.061c22.232,19.842,36.045,58.801,36.045,101.677c0,16.59-10.6,26.609-19.494,32.096
							C491.785,528.633,481.355,532.172,470,533.916z"/>
					</g>
					<g>
						
							<path fill="#FFFFFF" stroke="#000000" stroke-width="10.2351" stroke-linecap="round" stroke-linejoin="round" stroke-miterlimit="10" d="
							M447.832,331.508c-0.543,4.997-5.041,8.609-10.039,8.065l-28.518-3.101c-5-0.544-8.613-5.038-8.068-10.034l3.1-28.522
							c0.543-4.997,5.037-8.609,10.039-8.067l28.518,3.1c5.002,0.547,8.613,5.038,8.07,10.039L447.832,331.508z"/>
						<path d="M462.771,321.281c0,0-4.57-1.142-6.125-1.311c-1.557-0.169-6.266-0.034-6.266-0.034l0.484-4.462
							c0,0,4.711-0.135,6.266,0.034c1.555,0.172,6.125,1.313,6.125,1.313L462.771,321.281z"/>
						
							<path fill="#FFFFFF" stroke="#000000" stroke-width="10.2351" stroke-linecap="round" stroke-linejoin="round" stroke-miterlimit="10" d="
							M509.398,338.202c-0.543,5-5.037,8.611-10.035,8.068l-28.521-3.102c-4.998-0.543-8.613-5.037-8.066-10.037l3.102-28.52
							c0.543-4.999,5.037-8.613,10.039-8.067l28.518,3.103c4.998,0.543,8.609,5.035,8.066,10.035L509.398,338.202z"/>
						<path d="M490.514,321.72c-0.25,2.294-2.313,3.949-4.607,3.699c-2.291-0.248-3.945-2.309-3.697-4.603
							c0.25-2.291,2.309-3.948,4.604-3.7C489.104,317.365,490.762,319.427,490.514,321.72z"/>
						<path d="M430.219,315.163c-0.248,2.291-2.311,3.95-4.602,3.7c-2.291-0.249-3.951-2.312-3.701-4.604s2.311-3.948,4.607-3.699
							C428.814,310.81,430.469,312.87,430.219,315.163z"/>
					</g>
				</g>
				<g>
					<g>
						<path fill="#CCCCCC" d="M94.313,339.044c0.001-0.061,0.004-0.121,0.006-0.18C94.316,338.923,94.313,338.983,94.313,339.044z"
							/>
						<path fill="#CCCCCC" d="M94.463,336.747c0.002-0.045,0.006-0.085,0.009-0.127C94.469,336.662,94.465,336.704,94.463,336.747z"
							/>
						<path fill="#FFFFFF" d="M172.35,392.826c-1.439-1.286-2.21-3.163-2.084-5.093c0.127-1.928,1.137-3.689,2.734-4.777
							c13.85-9.412,22.115-25.015,22.115-41.729c0-26.563-20.646-48.378-46.734-50.279c-1.219-0.089-2.447-0.147-3.691-0.147
							c-3.152,0-6.234,0.305-9.229,0.86c-21.937,4.077-38.936,22.39-40.989,44.96c-0.003,0.042-0.007,0.082-0.009,0.127
							c-0.063,0.702-0.111,1.408-0.145,2.117c-0.002,0.059-0.005,0.119-0.006,0.18c-0.031,0.723-0.051,1.449-0.051,2.183
							c0,15.958,7.319,30.634,20.08,40.271c1.528,1.153,2.449,2.945,2.492,4.861c0.043,1.918-0.793,3.75-2.269,4.974
							c-23.087,19.146-38.005,59.889-38.005,103.799c0,16.691,10.666,26.774,19.615,32.296
							c11.959,7.379,28.877,11.611,46.414,11.611c0.316,0,0.633-0.013,0.947-0.017c5.225-0.044,10.383-0.469,15.367-1.234
							c11.424-1.756,21.922-5.317,30.1-10.36c8.947-5.521,19.613-15.604,19.613-32.296
							C208.617,451.992,194.721,412.791,172.35,392.826z"/>
						<path d="M221.163,495.131c0-43.179-13.305-83.079-35.108-106.425c13.646-11.893,21.606-29.149,21.606-47.479
							c0-34.724-28.249-62.974-62.972-62.974c-34.724,0-62.975,28.25-62.975,62.974c0,17.415,6.979,33.607,19.369,45.44
							c-23.017,23.008-37.07,63.69-37.07,108.464c0,17.793,8.844,32.654,25.574,42.973c14.09,8.691,32.912,13.479,53.002,13.479
							c20.086,0,38.912-4.788,53.001-13.479C212.321,527.785,221.163,512.924,221.163,495.131z M158.904,537.787
							c-4.984,0.766-10.143,1.19-15.367,1.234c-0.314,0.004-0.631,0.017-0.947,0.017c-17.537,0-34.455-4.232-46.414-11.611
							c-8.949-5.521-19.615-15.604-19.615-32.296c0-43.91,14.918-84.653,38.005-103.799c1.476-1.224,2.312-3.056,2.269-4.974
							c-0.043-1.916-0.964-3.708-2.492-4.861c-12.761-9.637-20.08-24.313-20.08-40.271c0-0.733,0.02-1.46,0.051-2.183
							c0.001-0.061,0.004-0.121,0.006-0.18c0.033-0.709,0.082-1.415,0.145-2.117c0.002-0.043,0.006-0.085,0.009-0.127
							c2.054-22.57,19.053-40.883,40.989-44.96c2.994-0.556,6.076-0.86,9.229-0.86c1.244,0,2.473,0.059,3.691,0.147
							c26.088,1.901,46.734,23.716,46.734,50.279c0,16.715-8.266,32.317-22.115,41.729c-1.598,1.088-2.607,2.85-2.734,4.777
							c-0.126,1.93,0.645,3.807,2.084,5.093c22.371,19.965,36.268,59.166,36.268,102.305c0,16.691-10.666,26.774-19.613,32.296
							C180.826,532.47,170.328,536.031,158.904,537.787z"/>
					</g>
					<path d="M177.234,326.731c-0.435-3.958-3.987-6.816-7.942-6.385c-3.956,0.43-6.813,3.985-6.382,7.939
						c0.432,3.954,3.984,6.813,7.938,6.381C174.807,334.237,177.66,330.683,177.234,326.731z"/>
					<path d="M125.645,319.042c-0.432-3.958-3.988-6.816-7.942-6.384c-3.953,0.429-6.81,3.984-6.38,7.938
						c0.43,3.955,3.984,6.813,7.938,6.381C123.216,326.549,126.072,322.993,125.645,319.042z"/>
					<path d="M163.08,359.627c-2.92,12.739-15.613,20.7-28.354,17.778c-12.739-2.922-20.698-15.616-17.777-28.357
						C119.869,336.312,166.001,346.888,163.08,359.627z"/>
				</g>
				<g>
					<g>
						<path fill="#CCCCCC" d="M230.953,288.368c0.002-0.082,0.006-0.163,0.008-0.244
							C230.959,288.205,230.955,288.286,230.953,288.368z"/>
						<path fill="#CCCCCC" d="M231.158,285.233c0.004-0.059,0.008-0.115,0.013-0.171
							C231.166,285.118,231.162,285.177,231.158,285.233z"/>
						<path fill="#FFFFFF" d="M337.434,361.753c-1.965-1.756-3.016-4.316-2.844-6.948c0.174-2.632,1.551-5.036,3.73-6.518
							c18.896-12.845,30.176-34.134,30.176-56.94c0-36.244-28.172-66.01-63.768-68.604c-1.664-0.121-3.34-0.201-5.039-0.201
							c-4.3,0-8.506,0.414-12.592,1.174c-29.931,5.563-53.125,30.549-55.927,61.347c-0.005,0.056-0.009,0.112-0.013,0.171
							c-0.085,0.959-0.151,1.923-0.197,2.891c-0.002,0.081-0.006,0.162-0.008,0.244c-0.043,0.986-0.068,1.979-0.068,2.979
							c0,21.774,9.986,41.8,27.397,54.947c2.086,1.574,3.343,4.021,3.401,6.637c0.059,2.613-1.082,5.113-3.096,6.783
							c-31.502,26.123-51.857,81.718-51.857,141.633c0,22.773,14.555,36.531,26.765,44.065
							c16.319,10.067,39.403,15.842,63.332,15.842c0.431,0,0.862-0.017,1.292-0.021c7.129-0.061,14.166-0.641,20.969-1.686
							c15.588-2.394,29.91-7.254,41.068-14.136c12.209-7.534,26.764-21.292,26.764-44.065
							C386.92,442.482,367.957,388.995,337.434,361.753z"/>
						<path d="M404.037,501.347c0-58.918-18.152-113.361-47.902-145.215c18.619-16.229,29.48-39.773,29.48-64.785
							c0-47.378-38.545-85.926-85.926-85.926c-47.378,0-85.924,38.548-85.924,85.926c0,23.764,9.52,45.857,26.428,62.002
							c-31.406,31.394-50.581,86.903-50.581,147.998c0,24.275,12.065,44.553,34.894,58.635
							c19.226,11.858,44.908,18.393,72.321,18.393c27.407,0,53.093-6.534,72.317-18.393
							C391.973,545.899,404.037,525.622,404.037,501.347z M319.088,559.548c-6.803,1.045-13.84,1.625-20.969,1.686
							c-0.43,0.004-0.861,0.021-1.292,0.021c-23.929,0-47.013-5.774-63.332-15.842c-12.21-7.534-26.765-21.292-26.765-44.065
							c0-59.915,20.355-115.51,51.857-141.633c2.014-1.67,3.154-4.17,3.096-6.783c-0.059-2.615-1.315-5.063-3.401-6.637
							c-17.411-13.147-27.397-33.173-27.397-54.947c0-0.999,0.025-1.992,0.068-2.979c0.002-0.082,0.006-0.163,0.008-0.244
							c0.046-0.968,0.112-1.932,0.197-2.891c0.004-0.057,0.008-0.115,0.013-0.171c2.802-30.798,25.996-55.784,55.927-61.347
							c4.086-0.76,8.292-1.174,12.592-1.174c1.699,0,3.375,0.08,5.039,0.201c35.596,2.594,63.768,32.359,63.768,68.604
							c0,22.807-11.279,44.096-30.176,56.94c-2.18,1.481-3.557,3.886-3.73,6.518c-0.172,2.632,0.879,5.192,2.844,6.948
							c30.523,27.242,49.486,80.729,49.486,139.594c0,22.773-14.555,36.531-26.764,44.065
							C348.998,552.294,334.676,557.154,319.088,559.548z"/>
					</g>
					<g>
						<path d="M388.496,277.206h-0.02c0.006,0.074,0.016,0.145,0.02,0.219V277.206z"/>
						<path d="M213.2,277.206v5.964c0-2.005,0.092-3.991,0.225-5.964H213.2z"/>
						<path d="M388.697,283.17c0-1.931-0.078-3.844-0.201-5.745v11.467C388.619,286.999,388.697,285.095,388.697,283.17z"/>
						<path d="M388.477,277.206c-1.676-24.948-13.768-47.041-31.979-61.953c-15.129-12.389-34.465-19.83-55.549-19.83
							c-46.457,0-84.456,36.107-87.524,81.783c-0.133,1.973-0.225,3.959-0.225,5.964v87.748l27.872-0.596l1.03-26.896l0.916-0.838
							c-0.313-0.398-0.61-0.813-0.916-1.22c-8.803-11.774-14.185-26.257-14.595-41.993c0.74,0.01,1.476,0.025,2.219,0.025
							c4.172,0,8.299-0.185,12.376-0.549c39.06-3.486,73.421-23.306,96.204-52.58c15.543,5.693,27.373,15.742,32.816,30.934
							c2.131,5.943,3.314,12.648,3.314,20.223c0,18.165-6.607,34.768-17.525,47.593c-0.574,0.673-1.15,1.345-1.748,1.997
							l1.748,1.793v22.106h31.584v-82.026v-11.467C388.492,277.351,388.482,277.28,388.477,277.206z"/>
					</g>
					<path d="M335.301,290.442c-0.475-4.346-4.375-7.482-8.715-7.009c-4.342,0.472-7.479,4.375-7.006,8.716
						c0.475,4.341,4.373,7.479,8.713,7.003C332.637,298.681,335.77,294.778,335.301,290.442z"/>
					<path d="M278.678,290.442c-0.475-4.346-4.377-7.482-8.718-7.009c-4.339,0.472-7.476,4.375-7.003,8.716
						c0.472,4.341,4.373,7.479,8.713,7.003C276.013,298.681,279.147,294.778,278.678,290.442z"/>
					
						<path fill="#020202" stroke="#020202" stroke-width="2.2845" stroke-linecap="round" stroke-linejoin="round" stroke-miterlimit="10" d="
						M297.256,340.698c1.504,0,2.828,0.365,3.592-0.809c0.764,1.174,2.088,0.809,3.594,0.809c2.363,0,10.877-6.344,10.877-6.344
						s-8.514-2.221-10.877-2.221c-1.506,0-2.83,0.777-3.594,1.951c-0.764-1.174-2.088-1.951-3.592-1.951
						c-2.365,0-10.879,2.221-10.879,2.221S294.891,340.698,297.256,340.698z"/>
				</g>
				<g>
					<g>
						<g>
							<g>
								<path fill="#010101" d="M259.507,399.752h5.815v5.745h5.32v-5.745h5.816v17.4h-5.816v-5.827h-5.32v5.827h-5.815V399.752
									L259.507,399.752z"/>
								<path fill="#010101" d="M284.105,405.522h-5.121v-5.771h16.06v5.771h-5.122v11.63h-5.816V405.522L284.105,405.522z"/>
								<path fill="#010101" d="M297.594,399.752h6.063l3.73,6.114l3.729-6.114h6.064v17.4h-5.791v-8.624l-4.002,6.187h-0.1
									l-4.004-6.187v8.624h-5.689V399.752z"/>
								<path fill="#010101" d="M320.074,399.752h5.818v11.649h8.176v5.751h-13.994V399.752z"/>
							</g>
						</g>
					</g>
					<g>
						<g id="Guides_to_delete_4_">
							<g>
								<path fill="#E35126" d="M251.137,424.939l2.629,69.803c0,0.101-0.008,0.202-0.008,0.305c0,20.646,22.4,37.38,43.043,37.38
									c20.645,0,43.047-16.734,43.047-37.38l2.664-70.107H251.137z"/>
								<g>
									<path fill="#EE672C" d="M296.682,432.898v91.57c16.873-0.01,35.17-13.687,35.17-30.557l2.18-61.014H296.682z"/>
								</g>
								<path fill="#FFFFFF" d="M296.682,444.014h-1.031h-27.635l3.086,34.613h25.356h0.224h14.092l-1.334,14.845
									c0,0-9.463,3.454-12.773,3.453v-0.008c-3.469-0.132-12.747-3.44-12.747-3.44l-0.853-9.532h-11.489l1.644,18.375
									c0,0,16.826,6.231,23.237,6.496v0.012c0.067,0,0.142,0.005,0.206,0.005c6.09,0.001,23.475-6.513,23.475-6.513l3.148-35.137
									h-26.605h-0.224h-14.889l-1.048-11.721h15.129h1.031h27.576h0.035l1.055-11.448H296.682z"/>
							</g>
						</g>
					</g>
				</g>
			</g>
		</g>
		<g>
			<path d="M168.146,612.552h15.838c6.215,0,12.055,2.85,12.055,10.746c0,8.27-4.719,11.493-12.055,11.493h-7.148v11.12h-8.689
				V612.552z M176.836,628.063h5.84c2.711,0,4.674-1.122,4.674-4.158c0-3.131-2.01-4.393-4.674-4.393h-5.84V628.063z"/>
			<path d="M215.33,611.851c10.512,0,16.445,7.709,16.445,17.381c0,9.671-5.934,17.381-16.445,17.381s-16.447-7.71-16.447-17.381
				C198.883,619.56,204.818,611.851,215.33,611.851z M215.33,639.137c5.607,0,7.756-4.953,7.756-9.905
				c0-4.953-2.148-9.905-7.756-9.905s-7.756,4.952-7.756,9.905C207.574,634.184,209.723,639.137,215.33,639.137z"/>
			<path d="M236.49,612.552h17.006c5.887,0,11.682,2.663,11.682,9.391c0,3.598-1.729,7.009-5.234,8.363v0.094
				c3.551,0.841,4.58,4.813,4.859,7.989c0.094,1.401,0.234,6.308,1.402,7.522h-8.598c-0.746-1.121-0.887-4.392-0.98-5.326
				c-0.234-3.364-0.795-6.821-4.859-6.821h-6.588v12.147h-8.689V612.552z M245.18,627.035h7.289c2.617,0,4.018-1.401,4.018-3.925
				c0-2.476-1.963-3.598-4.391-3.598h-6.916V627.035z"/>
			<path d="M295.822,620.027h-9.953v25.884h-8.689v-25.884h-9.953v-7.476h28.596V620.027z"/>
			<path d="M328.475,632.128c0,9.672-4.438,14.484-14.529,14.484s-14.531-4.813-14.531-14.484v-19.576h8.689v20.09
				c0,4.299,1.59,6.495,5.842,6.495s5.84-2.196,5.84-6.495v-20.09h8.689V632.128z"/>
			<path d="M365.053,645.911h-5.605l-0.514-3.645c-2.291,3.224-6.215,4.346-9.299,4.346c-10.092,0-16.633-7.71-16.633-17.381
				c0-9.672,6.541-17.381,16.633-17.381c6.916,0,14.297,3.691,15.092,12.055h-8.691c-0.279-2.851-3.082-4.579-6.588-4.579
				c-5.605,0-7.756,4.952-7.756,9.905c0,4.952,2.15,9.905,7.756,9.905c4.299,0,7.195-2.01,7.664-5.046h-6.074v-6.448h14.016V645.911
				z"/>
			<path d="M379.672,612.552h8.83l12.475,33.359h-9.063l-2.057-5.98h-11.635l-2.102,5.98h-8.924L379.672,612.552z M380.232,633.483
				h7.568l-3.689-11.681h-0.094L380.232,633.483z"/>
			<path d="M403.494,612.552h8.691v25.884h15.559v7.476h-24.25V612.552z"/>
		</g>
	</g>
</svg>
